<?xml version="1.0" encoding="UTF-8"?>
<svg xmlns="http://www.w3.org/2000/svg" viewBox="0 0 64 64" width="64" height="64">
  <defs>
    <linearGradient id="bg" x1="0" y1="0" x2="0" y2="1">
      <stop offset="0%" stop-color="#3584e4"/>
      <stop offset="100%" stop-color="#1a5fb4"/>
    </linearGradient>
  </defs>
  <rect width="64" height="64" rx="14" fill="url(#bg)"/>
  <g transform="translate(32,32)" fill="none" stroke="#fff" stroke-width="2.5" stroke-linecap="round" stroke-linejoin="round">
    <!-- Shield -->
    <path d="M0-18 C10-18 16-14 16-6 C16 8 8 16 0 20 C-8 16-16 8-16-6 C-16-14-10-18 0-18Z" fill="rgba(255,255,255,0.15)"/>
    <!-- Lock body -->
    <rect x="-7" y="-2" width="14" height="12" rx="2" fill="rgba(255,255,255,0.3)" stroke="#fff"/>
    <!-- Lock shackle -->
    <path d="M-4-2 L-4-6 C-4-9 4-9 4-6 L4-2" fill="none"/>
    <!-- Keyhole -->
    <circle cx="0" cy="4" r="2" fill="#fff"/>
    <line x1="0" y1="6" x2="0" y2="8"/>
  </g>
</svg>
